<svg xmlns="http://www.w3.org/2000/svg" xmlns:xlink="http://www.w3.org/1999/xlink" viewBox="0 0 182 206"><defs><style>.cls-1{fill:none;}.cls-2{clip-path:url(#clip-path);}.cls-3{fill:#fea700;}.cls-4{fill:#fff;}</style><clipPath id="clip-path"><circle class="cls-1" cx="95" cy="92" r="82"/></clipPath></defs><title>Asset 2</title><g id="Layer_2" data-name="Layer 2"><g id="logo_try"><g class="cls-2"><rect class="cls-3" width="182" height="184"/><path class="cls-4" d="M66.66,118.43c-4.82-8-8-28.92-8-28.92C81.12,148.16,95.18,159,95.18,159s-6.53,1.52-10,1.21c-10.54-.94-29.52-7.63-48.2-35.35,0,0,21.69,17.67,24.1,16.87C38.54,132.09,32.92,63,32.92,63S58.63,110.4,66.66,118.43Z"/><ellipse class="cls-4" cx="94.5" cy="176.5" rx="34.5" ry="29.5"/><path class="cls-4" d="M80.32,160h-8c-24.9-1.61-30.53-10.44-30.53-10.44s19.28,4,37.76,2.41C90,147.95,80.32,160,80.32,160Z"/><path class="cls-4" d="M135.75,108.79a77.28,77.28,0,0,1,4-16.07C120.49,126.47,95.58,159,95.58,159s6.57,1.52,10.11,1.21c10.61-.94,38.1-13.66,56.57-40.17-18.48,13.66-27.31,17.67-27.31,17.67s17.67-8.84,32.13-68.29C143,103.17,135.75,108.79,135.75,108.79Z"/><path class="cls-4" d="M111.25,159h8c24.9-1.61,30.53-10.44,30.53-10.44s-19.28,4-37.76,2.41C101.61,146.95,111.25,159,111.25,159Z"/><polygon points="99.12 120.84 84.21 120.84 84.21 105.54 54 105.54 54 93.37 84.21 63.16 99.12 63.16 68.91 93.77 99.12 93.77 99.12 120.84"/><polyline points="132.5 63.16 136 63.16 136 78.46 120.7 93.37 120.7 108.67 105.79 108.67 105.79 93.77 121.09 78.53 121.09 63.16 132.5 63.16"/><polygon points="105.79 78.46 105.79 63.16 121.09 63.16 105.79 78.46"/><polygon points="136 93.37 136 108.67 120.7 108.67 136 93.37"/></g></g></g></svg>