<?xml version="1.0" encoding="UTF-8" standalone="no"?>
<!-- Created with Inkscape (http://www.inkscape.org/) -->

<svg
   xmlns:dc="http://purl.org/dc/elements/1.1/"
   xmlns:cc="http://creativecommons.org/ns#"
   xmlns:rdf="http://www.w3.org/1999/02/22-rdf-syntax-ns#"
   xmlns:svg="http://www.w3.org/2000/svg"
   xmlns="http://www.w3.org/2000/svg"
   xmlns:sodipodi="http://sodipodi.sourceforge.net/DTD/sodipodi-0.dtd"
   xmlns:inkscape="http://www.inkscape.org/namespaces/inkscape"
   width="105.55417mm"
   height="75.38356mm"
   viewBox="0 0 105.55417 75.38356"
   version="1.1"
   id="svg8"
   inkscape:version="0.92.2 5c3e80d, 2017-08-06"
   sodipodi:docname="ft_box.svg">
  <defs
     id="defs2" />
  <sodipodi:namedview
     id="base"
     pagecolor="#ffffff"
     bordercolor="#666666"
     borderopacity="1.0"
     inkscape:pageopacity="0.0"
     inkscape:pageshadow="2"
     inkscape:zoom="0.7"
     inkscape:cx="-73.837173"
     inkscape:cy="243.95585"
     inkscape:document-units="mm"
     inkscape:current-layer="layer1"
     showgrid="false"
     inkscape:window-width="1920"
     inkscape:window-height="1003"
     inkscape:window-x="0"
     inkscape:window-y="0"
     inkscape:window-maximized="1"
     fit-margin-top="0"
     fit-margin-left="0"
     fit-margin-right="0"
     fit-margin-bottom="0" />
  <metadata
     id="metadata5">
    <rdf:RDF>
      <cc:Work
         rdf:about="">
        <dc:format>image/svg+xml</dc:format>
        <dc:type
           rdf:resource="http://purl.org/dc/dcmitype/StillImage" />
        <dc:title />
      </cc:Work>
    </rdf:RDF>
  </metadata>
  <g
     inkscape:label="Layer 1"
     inkscape:groupmode="layer"
     id="layer1"
     transform="translate(-52.011805,-80.202539)">
    <g
       style="fill:#4d4d4d;fill-opacity:1"
       id="g6"
       transform="matrix(0.27430313,0,0,0.27430313,4.9448229,44.395073)" />
    <g
       style="fill:#4d4d4d;fill-opacity:1"
       id="g8"
       transform="matrix(0.27430313,0,0,0.27430313,4.9448229,44.395073)" />
    <g
       style="fill:#4d4d4d;fill-opacity:1"
       id="g10"
       transform="matrix(0.27430313,0,0,0.27430313,4.9448229,44.395073)" />
    <g
       style="fill:#4d4d4d;fill-opacity:1"
       id="g12"
       transform="matrix(0.27430313,0,0,0.27430313,4.9448229,44.395073)" />
    <g
       style="fill:#4d4d4d;fill-opacity:1"
       id="g14"
       transform="matrix(0.27430313,0,0,0.27430313,4.9448229,44.395073)" />
    <g
       style="fill:#4d4d4d;fill-opacity:1"
       id="g16"
       transform="matrix(0.27430313,0,0,0.27430313,4.9448229,44.395073)" />
    <g
       style="fill:#4d4d4d;fill-opacity:1"
       id="g18"
       transform="matrix(0.27430313,0,0,0.27430313,4.9448229,44.395073)" />
    <g
       style="fill:#4d4d4d;fill-opacity:1"
       id="g20"
       transform="matrix(0.27430313,0,0,0.27430313,4.9448229,44.395073)" />
    <g
       style="fill:#4d4d4d;fill-opacity:1"
       id="g22"
       transform="matrix(0.27430313,0,0,0.27430313,4.9448229,44.395073)" />
    <g
       style="fill:#4d4d4d;fill-opacity:1"
       id="g24"
       transform="matrix(0.27430313,0,0,0.27430313,4.9448229,44.395073)" />
    <g
       style="fill:#4d4d4d;fill-opacity:1"
       id="g26"
       transform="matrix(0.27430313,0,0,0.27430313,4.9448229,44.395073)" />
    <g
       style="fill:#4d4d4d;fill-opacity:1"
       id="g28"
       transform="matrix(0.27430313,0,0,0.27430313,4.9448229,44.395073)" />
    <g
       style="fill:#4d4d4d;fill-opacity:1"
       id="g30"
       transform="matrix(0.27430313,0,0,0.27430313,4.9448229,44.395073)" />
    <g
       style="fill:#4d4d4d;fill-opacity:1"
       id="g32"
       transform="matrix(0.27430313,0,0,0.27430313,4.9448229,44.395073)" />
    <g
       style="fill:#4d4d4d;fill-opacity:1"
       id="g34"
       transform="matrix(0.27430313,0,0,0.27430313,4.9448229,44.395073)" />
    <g
       id="g847"
       transform="matrix(1.0367362,0,0,1.0287594,-2.3242114,-4.2245459)"
       inkscape:export-xdpi="50.799995"
       inkscape:export-ydpi="50.799995">
      <g
         style="fill:#1a1a1a;fill-opacity:1;stroke:none"
         transform="matrix(0.00343377,0,0,-0.00387513,86.587204,121.88394)"
         id="g4528">
        <path
           style="fill:#1a1a1a;fill-opacity:1"
           inkscape:connector-curvature="0"
           d="m 5610,7592 c -11,-4 -15,-1514 -3,-1525 7,-8 1496,1489 1501,1509 3,11 -123,14 -742,16 -410,2 -751,2 -756,0 z"
           id="path4520" />
        <path
           style="fill:#1a1a1a;fill-opacity:1"
           inkscape:connector-curvature="0"
           d="m 7900,7590 c -421,-3 -765,-6 -765,-8 0,-1 1,-347 3,-769 l 2,-767 -770,-771 -770,-770 v -772 c 0,-504 3,-772 10,-775 5,-1 351,-1 767,2 l 758,5 5,767 5,768 773,773 772,772 v 766 c 0,602 -3,768 -12,775 -8,5 -349,7 -778,4 z"
           id="path4522" />
        <path
           style="fill:#1a1a1a;fill-opacity:1"
           inkscape:connector-curvature="0"
           d="M 1834,6046 290,4502 l 2,-624 3,-623 1540,-5 1540,-5 5,-770 5,-770 h 770 770 l 3,1391 2,1392 -22,6 c -13,3 -702,6 -1533,6 -830,0 -1511,3 -1513,8 -1,4 682,694 1518,1532 836,839 1520,1531 1520,1538 0,9 -159,12 -761,12 h -761 z"
           id="path4524" />
        <path
           style="fill:#1a1a1a;fill-opacity:1"
           inkscape:connector-curvature="0"
           d="m 8179,3991 c -273,-273 -616,-614 -762,-759 -145,-144 -261,-265 -257,-267 5,-3 1274,-8 1518,-5 9,0 12,159 12,759 0,418 -3,762 -7,764 -5,3 -231,-219 -504,-492 z"
           id="path4526" />
      </g>
      <g
         style="fill:#1a1a1a;stroke:none"
         transform="matrix(0.01031591,0,0,-0.00911971,73.496339,146.84704)"
         id="g849">
        <path
           style="fill:#1a1a1a"
           inkscape:connector-curvature="0"
           d="M 1776,4426 703,4156 359,3736 C 170,3505 11,3300 6,3282 c -7,-27 196,-132 1028,-531 570,-273 1059,-509 1086,-522 50,-25 55,-20 300,327 138,194 292,412 344,485 l 94,132 -979,448 c -539,246 -979,452 -979,458 0,6 452,125 1005,265 l 1005,255 1067,-248 c 587,-137 1072,-253 1077,-258 5,-5 -30,-27 -77,-48 -48,-21 -505,-221 -1017,-445 -511,-224 -933,-409 -936,-412 -9,-6 696,-957 712,-962 40,-11 2254,1031 2254,1061 0,48 -706,871 -757,884 -864,205 -2292,529 -2331,527 -28,-1 -535,-123 -1126,-272 z"
           id="path843" />
        <path
           style="fill:#1a1a1a"
           inkscape:connector-curvature="0"
           d="M 3000,1540 V -5 l 55,12 c 30,6 514,195 1075,420 l 1020,409 5,577 c 2,317 -2,754 -10,970 l -15,392 -700,-329 c -450,-213 -708,-324 -724,-313 -13,9 -178,227 -365,485 l -341,467 z"
           id="path845" />
        <path
           style="fill:#1a1a1a"
           inkscape:connector-curvature="0"
           d="m 2550,2609 c -187,-251 -346,-464 -353,-475 -6,-10 -337,132 -735,317 -398,184 -726,331 -731,327 -4,-4 -10,-440 -14,-967 L 711,852 1799,426 C 2398,192 2890,4 2894,7 c 3,4 4,693 1,1532 l -5,1526 z"
           id="path847" />
      </g>
    </g>
  </g>
</svg>
